<svg xmlns="http://www.w3.org/2000/svg" width="201" height="36" viewBox="0 0 201 36">
    <path fill="#EF5D3B" fill-rule="nonzero" d="M190.222 8.42c-2.973 0-6.796.42-7.275.42v26.2h5.894v-8.942c.86.14 1.73.21 2.602.21 5.415 0 9.557-3.525 9.557-8.891 0-6.103-4.565-8.998-10.778-8.998zm.53 12.995a5.385 5.385 0 0 1-1.91-.304v-7.428c.306-.052 1.328-.052 1.91-.052 2.602 0 4.354 1.262 4.354 3.892 0 2.527-1.804 3.892-4.353 3.892zm-20.065 4.43h5.682v-5.062h-5.682v-6.796h6.903V8.733h-12.692V35.04h13.113v-5.26h-7.324v-3.935zm-21.449-4.22V8.733h-5.786V35.04h5.786v-8.514h1.062l6.796 8.514h2.454v-6.102c-1.169-1.579-2.71-3.58-3.77-5.05a178.122 178.122 0 0 0 2.227-6.894l2.494-8.261h-6.062l-3.928 12.889-1.273.003zm-68.854 6.419c-2.123 0-5.575-1.946-5.575-6.158 0-4.21 3.446-6.154 5.575-6.154v12.312zM59.779 0l-7.112 4.05v2.21h9.238V0h-2.126zm-.69 27.624v7.42h5.829V8.732h-5.83v10.642l-3.862 4.986h-.954c.107-3.156.306-8.577.306-11.627V8.733h-5.83V35.04h3.133l6.266-7.419.941.003zM3.77 18.784c0 5.261-.703 10.47-3.771 11.574v5.63c7.167-.735 9.398-6.944 9.398-16.206V13.38h3.822v21.676h5.83V8.733H3.77v10.052zm82.289-3.04c2.123 0 5.575 1.946 5.575 6.158 0 4.21-3.452 6.142-5.575 6.142v-12.3zm0 16.891c6.37 0 11.469-4.421 11.469-10.733 0-6.313-5.097-10.734-11.469-10.734v-3.59h-5.676v3.575c-6.37 0-11.468 4.421-11.468 10.733 0 6.313 5.096 10.734 11.468 10.734v3.156h5.676v-3.141zm20.863-16.836c-1.074-2.116-2.654-4.96-3.835-7.066h-2.55v7.209l3.345 5.473-3.808 6.367v7.261h2.55l4.295-7.997h1.114l4.295 7.997h2.55v-7.26l-3.814-6.368 3.344-5.473v-7.21h-2.546c-1.17 2.105-2.762 4.948-3.823 7.052l-1.117.015zm26.232-7.066h-9.081l-7.115 26.307h5.946l1.169-4.634h9.081l1.17 4.631h5.945l-7.115-26.304zm-1.28 16.839h-6.528l2.71-11.102h1.06l2.759 11.102zM38.438 8.732H29.36L22.244 35.04h5.946l1.169-4.634h9.078l1.169 4.631h5.946L38.437 8.733zm-1.273 16.84h-6.532L33.34 14.47h1.062l2.76 11.102z"/>
</svg>
